<svg width="180" height="54" viewBox="0 0 180 54" fill="none" xmlns="http://www.w3.org/2000/svg">
<path fill-rule="evenodd" clip-rule="evenodd" d="M0 12C0 5.37258 5.37258 0 12 0H168C174.627 0 180 5.37258 180 12V15C173.373 15 168 20.3726 168 27C168 33.6274 173.373 39 180 39V42C180 48.6274 174.627 54 168 54H12C5.37258 54 0 48.6274 0 42V39C6.62742 39 12 33.6274 12 27C12 20.3726 6.62742 15 0 15V12Z" fill="#DCF9F6"/>
<path d="M63.206 26.1378V29.4986H53.919V26.1378H63.206ZM74.2131 38.2784C72.8078 38.2784 71.5549 38.0199 70.4545 37.5028C69.3608 36.9858 68.4924 36.2732 67.8494 35.3651C67.2064 34.4569 66.8717 33.4162 66.8452 32.2429H71.0213C71.0677 33.0317 71.3991 33.6714 72.0156 34.1619C72.6321 34.6525 73.3646 34.8977 74.2131 34.8977C74.8892 34.8977 75.4858 34.7486 76.0028 34.4503C76.5265 34.1454 76.9342 33.7244 77.2259 33.1875C77.5241 32.6439 77.6733 32.0208 77.6733 31.3182C77.6733 30.6023 77.5208 29.9725 77.2159 29.429C76.9176 28.8854 76.5033 28.4612 75.973 28.1562C75.4427 27.8513 74.8362 27.6955 74.1534 27.6889C73.5568 27.6889 72.9768 27.8116 72.4134 28.0568C71.8565 28.3021 71.4223 28.6368 71.1108 29.0611L67.2827 28.375L68.2472 17.6364H80.696V21.1562H71.7969L71.2699 26.2571H71.3892C71.7472 25.7533 72.2874 25.3357 73.0099 25.0043C73.7325 24.6728 74.5412 24.5071 75.4361 24.5071C76.6624 24.5071 77.7562 24.7955 78.7173 25.3722C79.6785 25.9489 80.4375 26.741 80.9943 27.7486C81.5511 28.7495 81.8262 29.9029 81.8196 31.2088C81.8262 32.581 81.508 33.8007 80.8651 34.8679C80.2287 35.9285 79.3371 36.7637 78.1903 37.3736C77.0502 37.9768 75.7244 38.2784 74.2131 38.2784ZM92.8068 38.4474C91.0966 38.4408 89.625 38.0199 88.392 37.1847C87.1657 36.3494 86.2211 35.1397 85.5582 33.5554C84.902 31.9711 84.5772 30.0653 84.5838 27.8381C84.5838 25.6174 84.9119 23.7249 85.5682 22.1605C86.2311 20.5961 87.1757 19.4062 88.402 18.5909C89.6349 17.7689 91.1032 17.358 92.8068 17.358C94.5104 17.358 95.9754 17.7689 97.2017 18.5909C98.4347 19.4129 99.3826 20.6061 100.045 22.1705C100.708 23.7282 101.036 25.6174 101.03 27.8381C101.03 30.072 100.698 31.9811 100.036 33.5653C99.3793 35.1496 98.438 36.3594 97.2116 37.1946C95.9853 38.0298 94.517 38.4474 92.8068 38.4474ZM92.8068 34.8778C93.9735 34.8778 94.9048 34.2912 95.6009 33.1179C96.2969 31.9446 96.6416 30.1847 96.6349 27.8381C96.6349 26.2936 96.4759 25.0076 96.1577 23.9801C95.8461 22.9527 95.402 22.1804 94.8253 21.6634C94.2552 21.1463 93.5824 20.8878 92.8068 20.8878C91.6468 20.8878 90.7188 21.4678 90.0227 22.6278C89.3267 23.7879 88.9754 25.5246 88.9688 27.8381C88.9688 29.4025 89.1245 30.7083 89.4361 31.7557C89.7543 32.7964 90.2017 33.5786 90.7784 34.1023C91.3551 34.6193 92.0312 34.8778 92.8068 34.8778ZM115.246 34.1818V33.108C115.246 32.2926 115.418 31.5436 115.763 30.8608C116.114 30.1714 116.622 29.6212 117.284 29.2102C117.954 28.7926 118.769 28.5838 119.73 28.5838C120.705 28.5838 121.524 28.7893 122.186 29.2003C122.856 29.6113 123.36 30.1615 123.698 30.8509C124.042 31.5336 124.215 32.286 124.215 33.108V34.1818C124.215 34.9972 124.042 35.7495 123.698 36.4389C123.353 37.1217 122.846 37.6686 122.176 38.0795C121.507 38.4972 120.692 38.706 119.73 38.706C118.756 38.706 117.937 38.4972 117.275 38.0795C116.612 37.6686 116.108 37.1217 115.763 36.4389C115.418 35.7495 115.246 34.9972 115.246 34.1818ZM118.14 33.108V34.1818C118.14 34.6525 118.252 35.0966 118.478 35.5142C118.71 35.9318 119.127 36.1406 119.73 36.1406C120.334 36.1406 120.745 35.9351 120.963 35.5241C121.189 35.1132 121.301 34.6657 121.301 34.1818V33.108C121.301 32.6241 121.195 32.1733 120.983 31.7557C120.771 31.3381 120.354 31.1293 119.73 31.1293C119.134 31.1293 118.72 31.3381 118.488 31.7557C118.256 32.1733 118.14 32.6241 118.14 33.108ZM104.796 22.5284V21.4545C104.796 20.6326 104.971 19.8802 105.323 19.1974C105.674 18.508 106.181 17.9579 106.844 17.5469C107.514 17.1359 108.322 16.9304 109.27 16.9304C110.251 16.9304 111.073 17.1359 111.736 17.5469C112.399 17.9579 112.903 18.508 113.248 19.1974C113.592 19.8802 113.765 20.6326 113.765 21.4545V22.5284C113.765 23.3504 113.589 24.1027 113.238 24.7855C112.893 25.4683 112.386 26.0152 111.716 26.4261C111.053 26.8305 110.238 27.0327 109.27 27.0327C108.302 27.0327 107.484 26.8272 106.814 26.4162C106.151 25.9986 105.648 25.4517 105.303 24.7756C104.965 24.0928 104.796 23.3437 104.796 22.5284ZM107.709 21.4545V22.5284C107.709 23.0123 107.822 23.4598 108.047 23.8707C108.279 24.2817 108.687 24.4872 109.27 24.4872C109.88 24.4872 110.294 24.2817 110.513 23.8707C110.739 23.4598 110.851 23.0123 110.851 22.5284V21.4545C110.851 20.9706 110.745 20.5199 110.533 20.1023C110.321 19.6847 109.9 19.4759 109.27 19.4759C108.68 19.4759 108.273 19.688 108.047 20.1122C107.822 20.5365 107.709 20.9839 107.709 21.4545ZM106.108 38L120.108 17.6364H122.713L108.713 38H106.108Z" fill="black"/>
</svg>
